<svg width="60" height="60" viewBox="0 0 60 60" fill="none" xmlns="http://www.w3.org/2000/svg">
<path d="M20.0889 33.3242L28.5453 42.1486L37.0017 26.7063L42.8844 31.8535L46.1934 26.7063" stroke="#0056B3" stroke-width="1.47068" stroke-linecap="round"/>
<path d="M17.2818 32.9827L21.6939 20.8497L29.4151 28.2033L37.1362 13.8642L45.5926 21.5856" stroke="#0056B3" stroke-width="1.47068" stroke-linecap="round"/>
<path d="M15.6767 12C15.6767 10.9847 14.8537 10.1617 13.8384 10.1617C12.8231 10.1617 12 10.9847 12 12L15.6767 12ZM13.8384 12L12 12L12 44.3549L13.8384 44.3549L15.6767 44.3549L15.6767 12L13.8384 12Z" fill="#0056B3"/>
<path d="M48.0317 48.0317C49.047 48.0317 49.8701 47.2086 49.8701 46.1934C49.8701 45.1781 49.047 44.355 48.0317 44.355L48.0317 48.0317ZM48.0317 46.1934L48.0317 44.355L12.0003 44.355L12.0003 46.1934L12.0003 48.0317L48.0317 48.0317L48.0317 46.1934Z" fill="#0056B3"/>
</svg>
