<svg width="14" height="14" viewBox="0 0 14 14" fill="none" xmlns="http://www.w3.org/2000/svg">
<path d="M6.20491 0.165809C6.45658 -0.0552608 6.83313 -0.0552788 7.08479 0.165809L11.411 3.99882L11.9783 4.49198L13.0848 5.49882C13.3606 5.74199 13.387 6.16298 13.1444 6.43925C12.9012 6.71472 12.4811 6.74131 12.2049 6.49882L11.9783 6.29862V11.9988C11.9783 13.1033 11.0828 13.9986 9.97835 13.9988H7.97835C7.61016 13.9988 7.31135 13.7 7.31135 13.3318V9.99882C7.31414 9.82522 7.24399 9.65831 7.11799 9.53886C6.9944 9.4092 6.82347 9.33432 6.64436 9.33183C6.27636 9.332 5.97842 9.6308 5.97835 9.99882V13.3318C5.97835 13.7 5.67954 13.9988 5.31135 13.9988H3.31135C2.20678 13.9988 1.31135 13.1034 1.31135 11.9988V6.29862L1.08479 6.49882C0.806848 6.72269 0.401616 6.68764 0.165846 6.41972C-0.0696065 6.15179 -0.0523707 5.74594 0.204908 5.49882L1.31135 4.49198L1.87776 3.99882L6.20491 0.165809ZM2.64436 5.1121V11.9988C2.64436 12.367 2.94316 12.6658 3.31135 12.6658H4.64436V9.99882C4.64439 8.89438 5.53996 7.99899 6.64436 7.99882C7.74891 7.99882 8.64433 8.89427 8.64436 9.99882V12.6658H9.97835C10.3464 12.6656 10.6444 12.3669 10.6444 11.9988V5.1121L6.64436 1.55936L2.64436 5.1121Z" fill="#6C757D"/>
</svg>
