<svg width="60" height="60" viewBox="0 0 60 60" fill="none" xmlns="http://www.w3.org/2000/svg">
<path d="M39.165 15.0007C41.5063 14.9588 43.4424 16.8141 43.5 19.155V28.155C42.8186 27.4808 42.046 26.9051 41.2051 26.445C37.2809 24.355 32.4796 24.8646 29.0811 27.7312C25.6825 30.598 24.3707 35.2451 25.7695 39.4655C26.0597 40.3636 26.4742 41.217 27 42.0007H19.335C16.988 42.0425 15.0494 40.1776 15 37.8308V19.1706C15.0492 16.8236 16.9878 14.9589 19.335 15.0007H39.165ZM22.5 21.0007C21.6716 21.0007 21 21.6723 21 22.5007C21.0002 23.329 21.6717 24.0007 22.5 24.0007H36C36.8283 24.0007 37.4998 23.329 37.5 22.5007C37.5 21.6723 36.8284 21.0007 36 21.0007H22.5Z" fill="#0056B3"/>
<path d="M36 26.625C37.5711 26.6268 39.1175 27.0182 40.5 27.7646C41.6716 28.4021 42.6943 29.2818 43.5 30.3447C44.7332 31.9705 45.3926 33.9595 45.375 36C45.3885 39.9609 42.9108 43.5026 39.1855 44.8486C35.4604 46.1946 31.291 45.0547 28.7695 42C28.0358 41.1128 27.4764 40.0948 27.1201 39C26.1538 36.1391 26.6243 32.9876 28.3848 30.5342C30.1453 28.0807 32.9802 26.6257 36 26.625ZM36 31.5C35.1716 31.5 34.5 32.1716 34.5 33V36C34.5095 36.4053 34.6822 36.7899 34.9795 37.0654L36.4795 38.5654C36.7611 38.8494 37.145 39.0088 37.5449 39.0088C37.9448 39.0088 38.3287 38.8494 38.6103 38.5654H38.5654C38.8494 38.2838 39.0088 37.9 39.0088 37.5C39.0088 37.1 38.8494 36.7162 38.5654 36.4346L37.5 35.3848V33C37.5 32.1716 36.8284 31.5 36 31.5Z" fill="#0056B3"/>
</svg>
