<svg width="60" height="60" viewBox="0 0 60 60" fill="none" xmlns="http://www.w3.org/2000/svg">
<path d="M41.5616 31.1036C41.3344 30.8451 41.2092 30.5127 41.2092 30.1686C41.2092 29.8245 41.3344 29.4921 41.5616 29.2336L43.3749 27.1936C43.5747 26.9707 43.6988 26.6903 43.7293 26.3925C43.7599 26.0947 43.6953 25.7949 43.5449 25.5361L40.7116 20.6344C40.5627 20.3759 40.336 20.171 40.0638 20.0489C39.7916 19.9268 39.4878 19.8937 39.1957 19.9544L36.5324 20.4928C36.1935 20.5628 35.8407 20.5063 35.5406 20.3341C35.2404 20.1618 35.0137 19.8857 34.9032 19.5578L34.0391 16.9653C33.944 16.6839 33.763 16.4395 33.5214 16.2666C33.2799 16.0938 32.9902 16.0012 32.6932 16.0019H27.0266C26.7176 15.9858 26.4119 16.0712 26.1561 16.2452C25.9003 16.4191 25.7085 16.672 25.6099 16.9653L24.8166 19.5578C24.7061 19.8857 24.4793 20.1618 24.1792 20.3341C23.8791 20.5063 23.5263 20.5628 23.1874 20.4928L20.4532 19.9544C20.1763 19.9153 19.8941 19.959 19.642 20.08C19.3899 20.201 19.1792 20.3939 19.0366 20.6344L16.2032 25.5361C16.049 25.792 15.9797 26.0901 16.0051 26.3878C16.0306 26.6855 16.1495 26.9676 16.3449 27.1936L18.1441 29.2336C18.3712 29.4921 18.4964 29.8245 18.4964 30.1686C18.4964 30.5127 18.3712 30.8451 18.1441 31.1036L16.3449 33.1436C16.1495 33.3696 16.0306 33.6517 16.0051 33.9494C15.9797 34.2471 16.049 34.5452 16.2032 34.8011L19.0366 39.7028C19.1854 39.9613 19.4121 40.1662 19.6843 40.2883C19.9565 40.4104 20.2603 40.4435 20.5524 40.3828L23.2157 39.8444C23.5546 39.7744 23.9074 39.8308 24.2075 40.0031C24.5077 40.1753 24.7344 40.4515 24.8449 40.7794L25.7091 43.3719C25.8076 43.6651 25.9995 43.918 26.2553 44.092C26.5111 44.2659 26.8168 44.3514 27.1257 44.3353H32.7924C33.0894 44.336 33.3791 44.2434 33.6206 44.0706C33.8621 43.8977 34.0432 43.6533 34.1382 43.3719L35.0024 40.7794C35.1129 40.4515 35.3396 40.1753 35.6397 40.0031C35.9399 39.8308 36.2927 39.7744 36.6316 39.8444L39.2949 40.3828C39.587 40.4435 39.8908 40.4104 40.163 40.2883C40.4351 40.1662 40.6618 39.9613 40.8107 39.7028L43.6441 34.8011C43.7945 34.5423 43.859 34.2425 43.8285 33.9447C43.798 33.6469 43.6739 33.3665 43.4741 33.1436L41.5616 31.1036ZM39.4507 33.0019L40.5841 34.2769L38.7707 37.4219L37.0991 37.0819C36.0787 36.8734 35.0174 37.0467 34.1164 37.569C33.2154 38.0913 32.5376 38.9262 32.2116 39.9153L31.6732 41.5019H28.0466L27.5366 39.8869C27.2105 38.8979 26.5327 38.0629 25.6317 37.5406C24.7307 37.0183 23.6694 36.845 22.6491 37.0536L20.9774 37.3936L19.1357 34.2628L20.2691 32.9878C20.966 32.2086 21.3513 31.1998 21.3513 30.1544C21.3513 29.109 20.966 28.1003 20.2691 27.3211L19.1357 26.0461L20.9491 22.9294L22.6207 23.2694C23.641 23.478 24.7024 23.3047 25.6034 22.7824C26.5043 22.2601 27.1822 21.4252 27.5082 20.4361L28.0466 18.8353H31.6732L32.2116 20.4503C32.5376 21.4393 33.2154 22.2742 34.1164 22.7965C35.0174 23.3188 36.0787 23.4922 37.0991 23.2836L38.7707 22.9436L40.5841 26.0886L39.4507 27.3636C38.7616 28.141 38.3811 29.1439 38.3811 30.1828C38.3811 31.2216 38.7616 32.2245 39.4507 33.0019ZM29.8599 24.5019C28.7391 24.5019 27.6435 24.8343 26.7117 25.4569C25.7798 26.0796 25.0535 26.9646 24.6246 28.0001C24.1957 29.0355 24.0835 30.1749 24.3021 31.2741C24.5208 32.3733 25.0605 33.383 25.853 34.1755C26.6454 34.968 27.6552 35.5077 28.7544 35.7264C29.8536 35.945 30.993 35.8328 32.0284 35.4039C33.0639 34.975 33.9489 34.2487 34.5716 33.3168C35.1942 32.3849 35.5266 31.2894 35.5266 30.1686C35.5266 28.6657 34.9295 27.2244 33.8668 26.1617C32.8041 25.0989 31.3628 24.5019 29.8599 24.5019ZM29.8599 33.0019C29.2995 33.0019 28.7517 32.8358 28.2858 32.5244C27.8198 32.2131 27.4567 31.7706 27.2422 31.2529C27.0278 30.7351 26.9717 30.1654 27.081 29.6158C27.1903 29.0662 27.4602 28.5614 27.8564 28.1651C28.2527 27.7689 28.7575 27.499 29.3071 27.3897C29.8567 27.2804 30.4264 27.3365 30.9442 27.5509C31.4619 27.7654 31.9044 28.1285 32.2157 28.5945C32.5271 29.0604 32.6932 29.6082 32.6932 30.1686C32.6932 30.92 32.3947 31.6407 31.8634 32.1721C31.332 32.7034 30.6113 33.0019 29.8599 33.0019Z" fill="#0056B3"/>
</svg>
