<svg width="60" height="60" viewBox="0 0 60 60" fill="none" xmlns="http://www.w3.org/2000/svg">
<path d="M43.41 37.502H42V27.002C42 20.3745 36.6275 15.002 30 15.002C23.3726 15.002 18 20.3745 18 27.002V37.502H16.665C15.8366 37.502 15.165 38.1735 15.165 39.002C15.165 39.8304 15.8366 40.502 16.665 40.502H43.41C44.2385 40.502 44.91 39.8304 44.91 39.002C44.91 38.1735 44.2385 37.502 43.41 37.502Z" fill="#0056B3"/>
<path d="M30 45.002C31.9024 44.9966 33.5959 43.7955 34.23 42.002H25.77C26.4041 43.7955 28.0976 44.9966 30 45.002Z" fill="#0056B3"/>
</svg>
