<svg width="60" height="60" viewBox="0 0 60 60" fill="none" xmlns="http://www.w3.org/2000/svg">
<path d="M32.8058 17.5073L27.4326 15.4785V43.1039L32.8058 45.1328V17.5073V17.5073Z" fill="#0056B3"/>
<path d="M42.4375 16.2108C41.7364 15.6408 40.837 15.4877 40.0195 15.7989L35.4927 17.5074V45.1328L41.7121 42.7837C42.8117 42.3692 43.5534 41.201 43.5524 39.8854V18.6972C43.5558 17.7127 43.1406 16.7867 42.4375 16.2108Z" fill="#0056B3"/>
<path d="M24.7462 15.4785L18.5268 17.8277C17.4273 18.2421 16.6855 19.4103 16.6865 20.726V41.9141C16.6831 42.8987 17.0983 43.8246 17.8015 44.4005C18.2634 44.7639 18.8112 44.9606 19.3731 44.965C19.6607 44.9678 19.9467 44.9162 20.2194 44.8124L24.7462 43.1039V15.4785Z" fill="#0056B3"/>
</svg>
