<svg width="60" height="60" viewBox="0 0 60 60" fill="none" xmlns="http://www.w3.org/2000/svg">
<path d="M44.4898 25.8751L41.9998 23.6101L40.7098 22.5001L30.9898 13.8751C30.4235 13.3776 29.576 13.3776 29.0098 13.8751L19.2898 22.5001L17.9998 23.6101L15.5098 25.8751C14.9306 26.4313 14.8923 27.345 15.4228 27.9478C15.9532 28.5506 16.8644 28.6288 17.4898 28.1251L17.9998 27.6751V40.5001C17.9998 42.9853 20.0145 45.0001 22.4998 45.0001H25.4998V36.0001C25.4998 33.5148 27.5145 31.5001 29.9998 31.5001C32.485 31.5001 34.4998 33.5148 34.4998 36.0001V45.0001H37.4998C39.985 45.0001 41.9998 42.9853 41.9998 40.5001V27.6751L42.5098 28.1251C43.1313 28.671 44.0776 28.6106 44.6248 27.9901C45.1707 27.3685 45.1103 26.4222 44.4898 25.8751Z" fill="#0056B3"/>
</svg>
